<svg width="40" height="40" viewBox="0 0 40 40" fill="none" xmlns="http://www.w3.org/2000/svg">
<circle cx="20" cy="20" r="20" transform="rotate(90 20 20)" fill="#7092FB"/>
<path d="M16.25 20L15.5429 19.2929C15.3554 19.4804 15.25 19.7348 15.25 20C15.25 20.2652 15.3554 20.5196 15.5429 20.7071L16.25 20ZM23.2071 14.4571C23.5976 14.0666 23.5976 13.4334 23.2071 13.0429C22.8166 12.6524 22.1834 12.6524 21.7929 13.0429L23.2071 14.4571ZM21.7929 26.9571C22.1834 27.3476 22.8166 27.3476 23.2071 26.9571C23.5976 26.5666 23.5976 25.9334 23.2071 25.5429L21.7929 26.9571ZM16.9571 20.7071L23.2071 14.4571L21.7929 13.0429L15.5429 19.2929L16.9571 20.7071ZM23.2071 25.5429L16.9571 19.2929L15.5429 20.7071L21.7929 26.9571L23.2071 25.5429Z" fill="white"/>
</svg>
