<svg width="40" height="40" viewBox="0 0 40 40" fill="none" xmlns="http://www.w3.org/2000/svg">
<circle cx="20" cy="20" r="20" transform="rotate(-90 20 20)" fill="#7092FB"/>
<path d="M23.75 20L24.4571 20.7071C24.6446 20.5196 24.75 20.2652 24.75 20C24.75 19.7348 24.6446 19.4804 24.4571 19.2929L23.75 20ZM16.7929 25.5429C16.4024 25.9334 16.4024 26.5666 16.7929 26.9571C17.1834 27.3476 17.8166 27.3476 18.2071 26.9571L16.7929 25.5429ZM18.2071 13.0429C17.8166 12.6524 17.1834 12.6524 16.7929 13.0429C16.4024 13.4334 16.4024 14.0666 16.7929 14.4571L18.2071 13.0429ZM23.0429 19.2929L16.7929 25.5429L18.2071 26.9571L24.4571 20.7071L23.0429 19.2929ZM16.7929 14.4571L23.0429 20.7071L24.4571 19.2929L18.2071 13.0429L16.7929 14.4571Z" fill="white"/>
</svg>
