<svg width="60" height="60" viewBox="0 0 60 60" fill="none" xmlns="http://www.w3.org/2000/svg">
    <path d="M34.6875 36.5625L29.0625 29.0625V55.3125H49.6875V36.5625H34.6875Z" fill="#D2BEA5"/>
    <path d="M23.4375 36.5625H8.4375V55.3125H29.0625V29.0625L23.4375 36.5625Z" fill="#C0AB91"/>
    <path d="M23.4375 36.5625H8.4375V40.3125H23.4375L29.0625 32.8125V29.0625L23.4375 36.5625Z" fill="#AB977E"/>
    <path d="M34.6875 36.5625H49.6875V40.3125H34.6875L29.0625 32.8125V29.0625L34.6875 36.5625Z" fill="#C7B39A"/>
    <path d="M29.0625 29.0625H9.375L3.75 36.5625H8.4375H23.4375L29.0625 29.0625Z" fill="#6A563D"/>
    <path d="M49.6875 36.5625H54.375L48.75 29.0625H29.0625L34.6875 36.5625H49.6875Z" fill="#8D7A63"/>
    <path d="M29.0625 29.0625C36.3112 29.0625 42.1875 23.1862 42.1875 15.9375C42.1875 8.68876 36.3112 2.8125 29.0625 2.8125C21.8138 2.8125 15.9375 8.68876 15.9375 15.9375C15.9375 23.1862 21.8138 29.0625 29.0625 29.0625Z" fill="#D8A852"/>
    <path d="M29.0625 25.3125C34.2402 25.3125 38.4375 21.1152 38.4375 15.9375C38.4375 10.7598 34.2402 6.5625 29.0625 6.5625C23.8848 6.5625 19.6875 10.7598 19.6875 15.9375C19.6875 21.1152 23.8848 25.3125 29.0625 25.3125Z" fill="#FECA57"/>
    <path d="M29.0625 23.4375C33.2046 23.4375 36.5625 20.0796 36.5625 15.9375C36.5625 11.7954 33.2046 8.4375 29.0625 8.4375C24.9204 8.4375 21.5625 11.7954 21.5625 15.9375C21.5625 20.0796 24.9204 23.4375 29.0625 23.4375Z" fill="#FECA57"/>
    <path d="M32.8125 13.5938C32.8125 12.9721 32.5656 12.376 32.126 11.9365C31.6865 11.4969 31.0904 11.25 30.4688 11.25H26.25V15.9375H30.4688C31.0904 15.9375 31.6865 15.6906 32.126 15.251C32.5656 14.8115 32.8125 14.2154 32.8125 13.5938Z" fill="#FECA57"/>
    <path d="M31.4062 15.9375H26.25V20.625H31.4062C32.0279 20.625 32.624 20.3781 33.0635 19.9385C33.5031 19.499 33.75 18.9029 33.75 18.2812C33.75 17.6596 33.5031 17.0635 33.0635 16.624C32.624 16.1844 32.0279 15.9375 31.4062 15.9375Z" fill="#FECA57"/>
    <path d="M17.8125 46.875H12.1875C11.9389 46.875 11.7004 46.9738 11.5246 47.1496C11.3488 47.3254 11.25 47.5639 11.25 47.8125C11.25 48.0611 11.3488 48.2996 11.5246 48.4754C11.7004 48.6512 11.9389 48.75 12.1875 48.75H17.8125C18.0611 48.75 18.2996 48.6512 18.4754 48.4754C18.6512 48.2996 18.75 48.0611 18.75 47.8125C18.75 47.5639 18.6512 47.3254 18.4754 47.1496C18.2996 46.9738 18.0611 46.875 17.8125 46.875Z" fill="#6A563D"/>
    <path d="M17.8125 50.625H12.1875C11.9389 50.625 11.7004 50.7238 11.5246 50.8996C11.3488 51.0754 11.25 51.3139 11.25 51.5625C11.25 51.8111 11.3488 52.0496 11.5246 52.2254C11.7004 52.4012 11.9389 52.5 12.1875 52.5H17.8125C18.0611 52.5 18.2996 52.4012 18.4754 52.2254C18.6512 52.0496 18.75 51.8111 18.75 51.5625C18.75 51.3139 18.6512 51.0754 18.4754 50.8996C18.2996 50.7238 18.0611 50.625 17.8125 50.625Z" fill="#6A563D"/>
    <path d="M33.1284 15.5006C33.4592 15.0453 33.6662 14.512 33.7295 13.9527C33.7927 13.3935 33.71 12.8275 33.4893 12.3097C33.2687 11.792 32.9176 11.3403 32.4704 10.9987C32.0232 10.657 31.495 10.4371 30.9375 10.3603V9.375C30.9375 9.12636 30.8387 8.8879 30.6629 8.71209C30.4871 8.53627 30.2486 8.4375 30 8.4375C29.7514 8.4375 29.5129 8.53627 29.3371 8.71209C29.1613 8.8879 29.0625 9.12636 29.0625 9.375V10.3125H28.125V9.375C28.125 9.12636 28.0262 8.8879 27.8504 8.71209C27.6746 8.53627 27.4361 8.4375 27.1875 8.4375C26.9389 8.4375 26.7004 8.53627 26.5246 8.71209C26.3488 8.8879 26.25 9.12636 26.25 9.375V10.3125H25.3125C25.0639 10.3125 24.8254 10.4113 24.6496 10.5871C24.4738 10.7629 24.375 11.0014 24.375 11.25C24.375 11.4986 24.4738 11.7371 24.6496 11.9129C24.8254 12.0887 25.0639 12.1875 25.3125 12.1875V19.6875C25.0639 19.6875 24.8254 19.7863 24.6496 19.9621C24.4738 20.1379 24.375 20.3764 24.375 20.625C24.375 20.8736 24.4738 21.1121 24.6496 21.2879C24.8254 21.4637 25.0639 21.5625 25.3125 21.5625H26.25V22.5C26.25 22.7486 26.3488 22.9871 26.5246 23.1629C26.7004 23.3387 26.9389 23.4375 27.1875 23.4375C27.4361 23.4375 27.6746 23.3387 27.8504 23.1629C28.0262 22.9871 28.125 22.7486 28.125 22.5V21.5625H29.0625V22.5C29.0625 22.7486 29.1613 22.9871 29.3371 23.1629C29.5129 23.3387 29.7514 23.4375 30 23.4375C30.2486 23.4375 30.4871 23.3387 30.6629 23.1629C30.8387 22.9871 30.9375 22.7486 30.9375 22.5V21.5625H31.4063C32.1196 21.5639 32.8139 21.3323 33.3835 20.9028C33.9531 20.4734 34.3669 19.8696 34.5618 19.1834C34.7568 18.4972 34.7223 17.7661 34.4635 17.1013C34.2048 16.4366 33.736 15.8745 33.1284 15.5006ZM31.875 13.5938C31.875 13.9667 31.7268 14.3244 31.4631 14.5881C31.1994 14.8518 30.8417 15 30.4688 15H27.1875V12.1875H30.4688C30.8417 12.1875 31.1994 12.3357 31.4631 12.5994C31.7268 12.8631 31.875 13.2208 31.875 13.5938ZM31.4063 19.6875H27.1875V16.875H31.4063C31.7792 16.875 32.1369 17.0232 32.4006 17.2869C32.6643 17.5506 32.8125 17.9083 32.8125 18.2812C32.8125 18.6542 32.6643 19.0119 32.4006 19.2756C32.1369 19.5393 31.7792 19.6875 31.4063 19.6875Z" fill="white"/>
</svg>
