<svg width="51" height="51" viewBox="0 0 51 51" fill="none" xmlns="http://www.w3.org/2000/svg">
    <path d="M50.9914 25.5C50.9914 11.4166 39.5768 0 25.4957 0C11.415 0 0 11.4166 0 25.5C0 39.5834 11.415 51 25.4957 51C39.5768 51 50.9914 39.5834 50.9914 25.5Z" fill="#54A0FF"/>
    <path d="M24.6728 30.6979L25.8638 31.8893H20.1336C18.962 31.8893 18.0122 32.8391 18.0122 34.0111C18.0122 35.1827 18.962 36.1328 20.1336 36.1328H25.9164L24.73 37.3196C23.9016 38.148 23.9016 39.4916 24.73 40.3199C25.5584 41.1487 26.9016 41.1487 27.73 40.3199L31.0116 37.0379L32.2497 35.7998C33.2229 34.8263 33.2229 33.2485 32.2497 32.2749L31.0116 31.0368L27.6728 27.6972C26.8471 26.8711 25.5078 26.8711 24.6818 27.6972L24.6728 27.7065C23.8467 28.5326 23.8467 29.8719 24.6728 30.6979Z" fill="white"/>
    <path d="M26.3191 13.6784L25.1277 14.8698H30.8584C32.0299 14.8698 32.9797 15.8196 32.9797 16.9916C32.9797 18.1635 32.0299 19.1133 30.8584 19.1133H25.0752L26.2619 20.3001C27.0903 21.1285 27.0903 22.472 26.2619 23.3008C25.4332 24.1292 24.09 24.1292 23.2616 23.3008L19.9799 20.0184L18.7418 18.7802C17.7687 17.8067 17.7687 16.2289 18.7418 15.2554L19.9799 14.0173L23.3188 10.6776C24.1448 9.85159 25.4841 9.85159 26.3098 10.6776L26.3191 10.687C27.1448 11.513 27.1448 12.8523 26.3191 13.6784Z" fill="white"/>
</svg>
