<svg width="51" height="51" viewBox="0 0 51 51" fill="none" xmlns="http://www.w3.org/2000/svg">
    <g clip-path="url(#clip0)">
        <path d="M43.9651 7.92074L41.3269 9.67945L36.9301 8.8001L34.2919 7.92074L30.7744 8.8001L28.1362 7.92074L29.8949 4.40323H33.4125L36.8596 2.67969C39.5181 3.99433 41.9232 5.76888 43.9651 7.92074Z" fill="#13CFB4"/>
        <path d="M23.7395 4.40323L22.8602 7.04139L20.222 7.92074L17.5838 12.3176L13.187 14.9558L7.0314 15.8351V18.4733L8.79011 20.232V23.7495L6.15215 21.9907L3.51399 20.232L1.98389 15.6329C4.61756 9.35672 9.65203 4.39526 15.9659 1.85303L18.4633 3.52388L23.7395 4.40323Z" fill="#13CFB4"/>
        <path d="M25.4983 29.0257L24.619 33.4226L21.1014 36.9401V39.5782L17.5839 42.2163V46.6132L14.9459 45.7338L13.1871 41.337V32.5432L8.7902 31.6639L7.03149 28.1464V25.5082L8.7902 23.7495L11.4284 21.1113L13.1871 24.6288H19.3426L21.9808 29.0257H25.4983Z" fill="#13CFB4"/>
        <path d="M47.7464 13.0474C52.5469 21.6116 51.9999 32.172 46.3394 40.1936L43.9651 37.8193V34.3018L42.2064 30.7843L40.4477 27.2667V23.7492L37.8095 21.9905L34.292 22.8699L28.1364 20.2317L27.2571 14.0761L29.8952 11.438H35.1715L36.9302 14.0761L42.2064 14.9555L47.4826 13.1968L47.7464 13.0474Z" fill="#13CFB4"/>
        <path d="M30.7745 8.80139L34.292 7.92204L36.9301 8.80139L41.327 9.68074L43.9652 7.92204C45.4381 9.46359 46.7088 11.1862 47.7465 13.0487L47.4827 13.1983L42.2065 14.957L36.9302 14.0776L35.1715 11.4395H29.8953L27.2572 14.0776L28.1365 20.2332L34.2921 22.8713L37.8096 21.992L40.4478 23.7507V27.2682L42.2065 30.7857L43.9652 34.3032V37.8207L46.3395 40.195C38.2185 51.7025 22.3062 54.4471 10.7996 46.326C1.02707 39.4281 -2.63906 26.6658 1.98382 15.6341L3.51392 20.2332L6.15208 21.9919L8.79024 23.7506L7.03144 25.5094V28.1476L8.79014 31.6651L13.187 32.5444V41.3382L14.9457 45.735L17.5839 46.6144V42.2175L21.1014 39.5794V36.9412L24.6189 33.4237L25.4983 29.0268H21.9807L19.3426 24.6299H13.187L11.4283 21.1124L8.79014 23.7506V20.2331L7.03144 18.4745V15.8363L13.187 14.957L17.5839 12.3188L20.222 7.92194L22.8602 7.04258L23.7395 4.40442L18.4633 3.52507L15.9659 1.85422C22.7283 -0.869205 30.3331 -0.568484 36.8598 2.68088L33.4126 4.40442H29.8951L28.1364 7.92194L30.7745 8.80139Z" fill="#E7ECED"/>
    </g>
    <defs>
        <clipPath id="clip0">
            <rect width="51" height="51" fill="white"/>
        </clipPath>
    </defs>
</svg>
