<svg width="72" height="72" viewBox="0 0 72 72" fill="none" xmlns="http://www.w3.org/2000/svg">
    <path d="M72 10.6875V12.7969C72 16.2983 69.1736 19.125 65.6719 19.125H54.9844V23.3438H67.7812C67.7812 27.9842 63.9842 31.7812 59.3438 31.7812H54.9844V36H63.5625C63.5625 40.6405 59.6249 44.4375 54.9844 44.4375H17.0156C12.3751 44.4375 8.57812 40.6405 8.57812 36H17.0156V31.7812H12.7969C8.15639 31.7812 4.21875 27.9842 4.21875 23.3438H17.0156V19.125H6.32812C2.82642 19.125 0 16.2983 0 12.7969V10.6875H17.0156C29.3342 11.5733 36 20.3483 36 29.6719C36 11.5733 54.5626 10.8984 54.9844 10.6875H72Z" fill="#E7ECED"/>
    <path d="M72 10.6875V12.7969C72 16.2983 69.1736 19.125 65.6719 19.125H54.9844V23.3438H67.7812C67.7812 27.9842 63.9842 31.7812 59.3438 31.7812H54.9844V36H63.5625C63.5625 40.6405 59.6249 44.4375 54.9844 44.4375H36V29.6719C36 11.5733 54.5626 10.8984 54.9844 10.6875H72Z" fill="#E7ECED"/>
    <path d="M36 23.3438C25.5376 23.3438 17.0156 31.8655 17.0156 42.3281C17.0156 52.7905 25.5376 61.3125 36 61.3125C46.4624 61.3125 54.9844 52.7905 54.9844 42.3281C54.9844 31.8655 46.4624 23.3438 36 23.3438Z" fill="#FECA57"/>
    <path d="M54.9844 42.3281C54.9844 52.7905 46.4624 61.3125 36 61.3125V23.3438C46.4624 23.3438 54.9844 31.8655 54.9844 42.3281Z" fill="#FECA57"/>
    <path d="M36 27.5625C27.8578 27.5625 21.2344 34.1859 21.2344 42.3281C21.2344 50.4703 27.8578 57.0938 36 57.0938C44.1422 57.0938 50.7656 50.4703 50.7656 42.3281C50.7656 34.1859 44.1422 27.5625 36 27.5625Z" fill="#D8A852"/>
    <path d="M50.7656 42.3281C50.7656 50.4703 44.1422 57.0938 36 57.0938V27.5625C44.1422 27.5625 50.7656 34.1859 50.7656 42.3281Z" fill="#D8A852"/>
    <path d="M42.3281 46.5469C42.3281 49.2889 40.5564 51.6094 38.1094 52.4952V59.2031H33.8906V52.4952C31.4436 51.6094 29.6719 49.2889 29.6719 46.5469H33.8906C33.8906 47.728 34.8186 48.6562 36 48.6562C37.1814 48.6562 38.1094 47.728 38.1094 46.5469C38.1094 45.3655 37.1814 44.4375 36 44.4375C32.4983 44.4375 29.6719 41.6108 29.6719 38.1094C29.6719 35.367 31.4436 33.0469 33.8906 32.1608V25.4531H38.1094V32.1608C40.5564 33.0469 42.3281 35.367 42.3281 38.1094H38.1094C38.1094 36.928 37.1814 36 36 36C34.8186 36 33.8906 36.928 33.8906 38.1094C33.8906 39.2905 34.8186 40.2188 36 40.2188C39.5017 40.2188 42.3281 43.0452 42.3281 46.5469Z" fill="#FECA57"/>
    <path d="M42.3281 46.5469C42.3281 49.2889 40.5564 51.6094 38.1094 52.4952V59.2031H36V48.6562C37.1814 48.6562 38.1094 47.728 38.1094 46.5469C38.1094 45.3655 37.1814 44.4375 36 44.4375V40.2188C39.5017 40.2188 42.3281 43.0452 42.3281 46.5469Z" fill="#FECA57"/>
    <path d="M36 36V25.4531H38.1094V32.1608C40.5564 33.0469 42.3281 35.367 42.3281 38.1094H38.1094C38.1094 36.928 37.1814 36 36 36Z" fill="#FECA57"/>
</svg>
