<svg width="48" height="53" viewBox="0 0 48 53" fill="none" xmlns="http://www.w3.org/2000/svg">
    <path d="M23.6489 52.8664C23.8743 52.9535 24.1257 52.9535 24.3511 52.8664C38.589 47.3657 48 33.6476 48 18.334V9.97646C48 9.42418 47.5505 8.98233 47.0016 8.92136C42.8502 8.46027 39.5543 5.15769 39.0948 0.998402C39.0342 0.449456 38.5923 0 38.04 0H24H9.95996C9.40768 0 8.9658 0.449455 8.90517 0.998402C8.44575 5.15769 5.14978 8.46027 0.998383 8.92136C0.449473 8.98233 0 9.42418 0 9.97646V18.3339C0 33.6476 9.41104 47.3657 23.6489 52.8664Z" fill="#54A0FF"/>
    <path d="M26.2578 30.5117C26.2578 29.8711 26.0781 29.3633 25.7188 28.9883C25.3672 28.6055 24.7656 28.2539 23.9141 27.9336C23.0625 27.6133 22.3281 27.2969 21.7109 26.9844C21.0938 26.6641 20.5625 26.3008 20.1172 25.8945C19.6797 25.4805 19.3359 24.9961 19.0859 24.4414C18.8438 23.8867 18.7227 23.2266 18.7227 22.4609C18.7227 21.1406 19.1445 20.0586 19.9883 19.2148C20.832 18.3711 21.9531 17.8789 23.3516 17.7383V15.2305H25.2266V17.7734C26.6094 17.9688 27.6914 18.5469 28.4727 19.5078C29.2539 20.4609 29.6445 21.6992 29.6445 23.2227H26.2578C26.2578 22.2852 26.0625 21.5859 25.6719 21.125C25.2891 20.6562 24.7734 20.4219 24.125 20.4219C23.4844 20.4219 22.9883 20.6055 22.6367 20.9727C22.2852 21.332 22.1094 21.832 22.1094 22.4727C22.1094 23.0664 22.2812 23.543 22.625 23.9023C22.9688 24.2617 23.6055 24.6289 24.5352 25.0039C25.4727 25.3789 26.2422 25.7344 26.8438 26.0703C27.4453 26.3984 27.9531 26.7734 28.3672 27.1953C28.7812 27.6094 29.0977 28.0859 29.3164 28.625C29.5352 29.1562 29.6445 29.7773 29.6445 30.4883C29.6445 31.8164 29.2305 32.8945 28.4023 33.7227C27.5742 34.5508 26.4336 35.0391 24.9805 35.1875V37.5195H23.1172V35.1992C21.5156 35.0273 20.2734 34.4609 19.3906 33.5C18.5156 32.5312 18.0781 31.2461 18.0781 29.6445H21.4648C21.4648 30.5742 21.6836 31.2891 22.1211 31.7891C22.5664 32.2812 23.2031 32.5273 24.0312 32.5273C24.7188 32.5273 25.2617 32.3477 25.6602 31.9883C26.0586 31.6211 26.2578 31.1289 26.2578 30.5117Z" fill="white"/>
</svg>
