<svg width="64" height="41" viewBox="0 0 64 41" fill="none" xmlns="http://www.w3.org/2000/svg">
    <path d="M55.7298 31.3466C55.5575 25.0859 52.9501 19.3877 48.787 15.2236H48.7865C44.352 10.79 38.3534 8.27002 31.9999 8.27002C25.8408 8.27002 19.7768 10.6597 15.2129 15.2236C10.7685 19.6684 8.43359 25.4765 8.27002 31.3481C8.26123 31.6635 8 31.9135 7.68457 31.9135H56.3148C55.9989 31.913 55.7386 31.6625 55.7298 31.3466Z" fill="#E7ECED"/>
    <path d="M54.6328 9.37546C48.6152 3.36034 40.5141 0 32 0V8.70456C38.2368 8.70456 44.125 11.1782 48.478 15.5302L54.6328 9.37546Z" fill="#13CFB4"/>
    <path d="M9.3667 9.37497L15.522 15.5302C19.8989 11.1533 25.8007 8.70456 31.9999 8.70456V0C23.9375 0 16.0976 2.88476 9.3667 9.37497Z" fill="#15BA8B"/>
    <path d="M9.3667 9.37497L15.522 15.5302C19.8989 11.1533 25.8007 8.70456 31.9999 8.70456V0C23.9375 0 16.0976 2.88476 9.3667 9.37497Z" fill="#FECA57"/>
    <path d="M0.000132374 31.3217C-0.00670355 31.6455 0.252085 31.913 0.575814 31.913H8.13195C8.44152 31.913 8.69786 31.6679 8.70665 31.3583C8.86681 25.5942 11.1593 19.8935 15.5221 15.5303L9.36681 9.375C3.58069 15.1611 0.177378 22.9653 0.000132374 31.3217Z" fill="#FF6B6B"/>
    <path d="M54.6333 9.375L48.478 15.5303C52.5654 19.6181 55.1245 25.2114 55.2934 31.3574C55.3022 31.6674 55.5581 31.913 55.8681 31.913H63.4243C63.748 31.913 64.0068 31.6459 64 31.3217C63.8257 23.1709 60.5561 15.2959 54.6333 9.375Z" fill="#54A0FF"/>
    <path d="M40.6828 33.8883L47.3771 19.5414C47.6541 18.9472 47.1528 18.2857 46.5063 18.3919L30.8836 20.9597C24.0684 22.0801 20.8901 30.0462 25.0621 35.55C29.2341 41.0543 37.7622 40.1471 40.6828 33.8883Z" fill="#54A0FF"/>
    <path d="M35.3097 27.6577C33.7731 26.1206 31.2814 26.1206 29.7443 27.6577C28.2076 29.1943 28.2076 31.686 29.7443 33.2231C31.2814 34.7597 33.7731 34.7597 35.3097 33.2231C36.8468 31.686 36.8468 29.1943 35.3097 27.6577Z" fill="#5182C0"/>
</svg>
