<svg width="40" height="40" viewBox="0 0 40 40" fill="none" xmlns="http://www.w3.org/2000/svg">
<circle cx="20" cy="20" r="20" fill="#FF4444"/>
<path d="M21.1065 21.28H18.8965L18.3245 14V8.8H21.7045V14L21.1065 21.28ZM20.0145 23.412C20.5519 23.412 21.0112 23.6027 21.3925 23.984C21.7739 24.3653 21.9645 24.8247 21.9645 25.362C21.9645 25.8993 21.7739 26.3587 21.3925 26.74C21.0112 27.1213 20.5519 27.312 20.0145 27.312C19.4772 27.312 19.0179 27.1213 18.6365 26.74C18.2552 26.3587 18.0645 25.8993 18.0645 25.362C18.0645 24.8247 18.2465 24.3653 18.6105 23.984C18.9919 23.6027 19.4599 23.412 20.0145 23.412Z" fill="white"/>
</svg>
