<svg width="168" height="29" viewBox="0 0 168 29" fill="none" xmlns="http://www.w3.org/2000/svg">
<path d="M29.9317 15.6691H17.7691C17.2299 15.6691 16.7303 15.9549 16.4617 16.4175L12.7746 22.7891C12.7309 22.8631 12.6518 22.9104 12.5644 22.9104H12.2333C11.4172 22.9104 10.6615 22.4807 10.2534 21.7817L10.1452 21.5966C10.1014 21.5226 10.1014 21.4321 10.1452 21.3581L13.8447 14.9392C14.1112 14.4807 14.1112 13.9173 13.8447 13.4568L10.1181 7.05427C10.0744 6.98025 10.0744 6.88978 10.1181 6.81576L10.2534 6.58344C10.6594 5.8885 11.411 5.46084 12.2229 5.46084H12.4415C12.5269 5.46084 12.606 5.50607 12.6497 5.57803L16.4409 11.9435C16.7094 12.4061 17.2091 12.6919 17.7483 12.6919H29.9317C30.7332 12.6919 31.235 11.8346 30.8331 11.1499L25.3889 1.84838L25.3785 1.82987C25.3723 1.81959 25.366 1.80931 25.3598 1.79903C25.2994 1.69829 25.2349 1.60165 25.1662 1.50913C24.4729 0.569516 23.357 0 22.1661 0H9.8537C9.7038 0 9.5539 0.0102832 9.40609 0.0287876C8.39219 0.148038 7.46782 0.686716 6.86615 1.50296C6.78912 1.60577 6.71625 1.71474 6.65171 1.82576L0.495496 12.3568C0.20611 12.8502 0.043722 13.3951 0.00832943 13.9461C0.00416561 14.0242 0 14.1044 0 14.1826C0 14.8138 0.164472 15.4429 0.495496 16.0083L6.65171 26.5394C6.73707 26.6853 6.83284 26.8251 6.93486 26.9547C7.57817 27.773 8.54626 28.2931 9.60179 28.3651C9.68506 28.3713 9.77042 28.3733 9.8537 28.3733H9.8766H22.1536C22.4534 28.3733 22.747 28.3363 23.0301 28.2685C23.8462 28.0732 24.5812 27.6044 25.0996 26.9444C25.1953 26.8231 25.2828 26.6956 25.3619 26.562C25.3681 26.5517 25.3744 26.5435 25.3806 26.5332L25.3848 26.525L30.8352 17.2132C31.2349 16.5264 30.7332 15.6691 29.9317 15.6691Z" fill="#fff"/>
<g opacity="0.25">
<path opacity="0.25" d="M29.9317 15.6691H17.7691C17.2299 15.6691 16.7303 15.9549 16.4617 16.4175L12.7746 22.7891C12.7309 22.8631 12.6518 22.9104 12.5644 22.9104H12.2333C11.4172 22.9104 10.6615 22.4807 10.2534 21.7817L10.1452 21.5966C10.1014 21.5226 10.1014 21.4321 10.1452 21.3581L13.8447 14.9392C14.1112 14.4807 14.1112 13.9173 13.8447 13.4568L10.1181 7.05427C10.0744 6.98025 10.0744 6.88978 10.1181 6.81576L10.2534 6.58344C10.6594 5.8885 11.411 5.46084 12.2229 5.46084H12.4415C12.5269 5.46084 12.606 5.50607 12.6497 5.57803L16.4409 11.9435C16.7094 12.4061 17.2091 12.6919 17.7483 12.6919H29.9317C30.7332 12.6919 31.235 11.8346 30.8331 11.1499L25.3889 1.84838L25.3785 1.82987C25.3723 1.81959 25.366 1.80931 25.3598 1.79903C25.2994 1.69829 25.2349 1.60165 25.1662 1.50913C24.4729 0.569516 23.357 0 22.1661 0H9.8537C9.7038 0 9.5539 0.0102832 9.40609 0.0287876C8.39219 0.148038 7.46782 0.686716 6.86615 1.50296C6.78912 1.60577 6.71625 1.71474 6.65171 1.82576L0.495496 12.3568C0.20611 12.8502 0.043722 13.3951 0.00832943 13.9461C0.00416561 14.0242 0 14.1044 0 14.1826C0 14.8138 0.164472 15.4429 0.495496 16.0083L6.65171 26.5394C6.73707 26.6853 6.83284 26.8251 6.93486 26.9547C7.57817 27.773 8.54626 28.2931 9.60179 28.3651C9.68506 28.3713 9.77042 28.3733 9.8537 28.3733H9.8766H22.1536C22.4534 28.3733 22.747 28.3363 23.0301 28.2685C23.8462 28.0732 24.5812 27.6044 25.0996 26.9444C25.1953 26.8231 25.2828 26.6956 25.3619 26.562C25.3681 26.5517 25.3744 26.5435 25.3806 26.5332L25.3848 26.525L30.8352 17.2132C31.2349 16.5264 30.7332 15.6691 29.9317 15.6691Z" fill="#FF0BD1"/>
</g>
<path d="M44.4905 8.09257C46.3996 8.09257 48.1255 9.09591 49.2768 10.4981L51.5044 8.63742C49.5579 6.26886 46.9263 5.26551 44.4905 5.26551C38.7257 5.26551 35.507 9.30357 35.507 14.3203C35.507 20.0854 39.6438 23.2044 44.4905 23.2044C47.6238 23.2044 49.9742 21.7673 51.5044 19.8675L49.2768 17.9945C48.1505 19.3843 46.4974 20.3877 44.4905 20.3877C41.099 20.3877 38.6632 17.9225 38.6632 14.3203C38.6653 10.5824 41.0387 8.09257 44.4905 8.09257Z" fill="white"/>
<path d="M59.1472 10.788C57.6544 10.788 56.2949 11.5015 55.3414 12.7824H55.3039V10.969H52.5017V23.0441H55.3039V17.3139C55.3039 15.3565 56.5156 13.8454 58.6454 13.8454C58.8411 13.8454 59.1721 13.8577 59.4907 13.8824V10.8004C59.3907 10.788 59.2679 10.788 59.1472 10.788Z" fill="white"/>
<path d="M66.615 19.117H66.59L63.2131 10.969H60.2631L65.2326 22.3676L63.0278 27.9416H65.9779L72.6983 10.969H69.7607L66.615 19.117Z" fill="white"/>
<path d="M80.214 10.788C78.5985 10.788 77.2639 11.3555 76.3333 12.4329H76.2834V10.971H73.4832V27.9416H76.2855V21.5596H76.3229C77.2161 22.6349 78.5256 23.2394 80.1911 23.2394C83.5805 23.2394 86.1142 20.7968 86.1142 17.0631C86.1142 13.4115 83.5805 10.788 80.214 10.788ZM79.7498 20.7249C77.7553 20.7249 76.1751 19.263 76.1751 17.0733C76.1751 14.933 77.6324 13.3026 79.7373 13.3026C81.6963 13.3026 83.2619 14.7541 83.2619 17.0733C83.2619 19.2137 81.8192 20.7249 79.7498 20.7249Z" fill="white"/>
<path d="M91.8311 20.6529C91.0483 20.6529 90.6569 20.2047 90.6569 18.9731V13.3272H94.2565V10.971H90.6569V6.6554H87.8547V10.971H86.3619V13.3272H87.8547V19.226C87.8547 21.9215 89.1642 23.2394 91.269 23.2394C92.8721 23.2394 93.6444 22.9125 94.3773 22.526L93.6424 20.1327C92.9949 20.4699 92.3079 20.6529 91.8311 20.6529Z" fill="white"/>
<path d="M101.019 10.788C97.1504 10.788 94.5917 13.4588 94.5917 17.0261C94.5917 20.5686 97.1504 23.2394 101.019 23.2394C104.764 23.2394 107.433 20.7002 107.433 17.0261C107.433 13.3272 104.764 10.788 101.019 10.788ZM101.019 20.7249C98.9138 20.7249 97.444 19.0924 97.444 17.0261C97.444 14.9227 98.8763 13.3026 101.019 13.3026C103.026 13.3026 104.581 14.8138 104.581 17.0261C104.581 19.2013 103.003 20.7249 101.019 20.7249Z" fill="white"/>
<path d="M117.491 15.9857H117.441L111.566 5.45672H108.53V23.0461H111.553V11.2589H111.591L116.462 19.6619H118.444L123.316 11.2589H123.353V23.0461H126.376V5.45672H123.341L117.491 15.9857Z" fill="white"/>
<path d="M133.9 10.788C130.032 10.788 127.473 13.4588 127.473 17.0261C127.473 20.5686 130.032 23.2394 133.9 23.2394C137.646 23.2394 140.315 20.7002 140.315 17.0261C140.313 13.3272 137.646 10.788 133.9 10.788ZM133.9 20.7249C131.796 20.7249 130.326 19.0924 130.326 17.0261C130.326 14.9227 131.758 13.3026 133.9 13.3026C135.907 13.3026 137.462 14.8138 137.462 17.0261C137.46 19.2013 135.882 20.7249 133.9 20.7249Z" fill="white"/>
<path d="M147.851 10.788C143.983 10.788 141.424 13.4588 141.424 17.0261C141.424 20.5686 143.983 23.2394 147.851 23.2394C151.597 23.2394 154.266 20.7002 154.266 17.0261C154.266 13.3272 151.597 10.788 147.851 10.788ZM147.851 20.7249C145.746 20.7249 144.277 19.0924 144.277 17.0261C144.277 14.9227 145.709 13.3026 147.851 13.3026C149.858 13.3026 151.413 14.8138 151.413 17.0261C151.413 19.2013 149.833 20.7249 147.851 20.7249Z" fill="white"/>
<path d="M165.194 12.4205H165.133C164.215 11.3452 162.868 10.788 161.265 10.788C157.899 10.788 155.365 13.4115 155.365 17.061C155.365 20.7968 157.899 23.2374 161.29 23.2374C163.028 23.2374 164.375 22.5856 165.269 21.4239H165.318V23.0441H168V5.45672H165.198V12.4205H165.194ZM161.729 20.7249C159.66 20.7249 158.217 19.2137 158.217 17.0754C158.217 14.7541 159.785 13.3046 161.742 13.3046C163.847 13.3046 165.304 14.9371 165.304 17.0754C165.304 19.261 163.724 20.7249 161.729 20.7249Z" fill="white"/>
</svg>
