<svg xmlns="http://www.w3.org/2000/svg" viewBox="0 0 741.73 124.01"><defs><style>.cls-1{fill:#fff;}</style></defs><title>CryptopolitianРесурс 1</title><g id="Слой_2" data-name="Слой 2"><g id="Слой_1-2" data-name="Слой 1"><path class="cls-1" d="M227,44.34c6-7.72,12.63-7.57,20.24-7.54,8.76,0,11.37,3.81,13.35,11.07a223.14,223.14,0,0,0,10.68,29.61q4.63-14.13,9.26-28.25c.58-1.78,1.08-3.58,1.66-5.36,2.1-6.36,5.33-8,11.93-6.49,2.81.66,1.88,2.32,1.31,3.91q-4.9,13.65-9.85,27.27c-4.38,12-8.66,24.06-13.24,36-3.87,10.07-9.81,14.12-18.9,13.56-2.5-.15-4.82-.43-4.57-3.81.2-2.87.25-5.56,4.35-5.86,6.39-.45,13.68-10.94,11.51-16.88C258.8,75.32,252.5,59.2,246.32,43c-.09-.25-.45-.4-1.07-.93-.56,4.71-3.53,5-7.43,5-6.45-.06-10.24,4.2-10.27,10.73-.05,10.76-.2,21.52.07,32.28.11,4.55-1.89,5.47-5.89,5.51-4.17,0-5.81-1.27-5.75-5.65.21-15.28,0-30.56.14-45.84,0-2.62-1.45-6.33,3.38-6.79C223.59,37,227.15,37.18,227,44.34Z"/><path class="cls-1" d="M311.75,43.25c4.66-6,11-7.46,18-6.88,6.31.52,11.53,3.21,14.74,8.68,7.17,12.21,8.07,25.24,2.82,38.22-5.37,13.26-21.12,17.27-32.83,9-.59-.42-1.21-.81-2.59-1.72,0,7.22-.11,13.7,0,20.18.09,3.84-.12,6.76-5.31,6.46-5.45-.32-6.06-.57-6.07-6.29q0-33.7,0-67.39c0-2.48-.79-5.65,3.22-6.15,3.42-.42,6.3,0,6.83,4.25C310.65,42,311.1,42.37,311.75,43.25Zm.12,23.21v8.41c0,6.58,2.36,10.08,7.77,11.7,6.16,1.83,12.37.05,15.58-4.49,5.6-7.94,4.85-25-1.43-32.28-3.26-3.8-9.28-5.17-14.59-3.3-5.11,1.79-7.29,5.08-7.32,11.08C311.86,60.54,311.87,63.5,311.87,66.46Z"/><path class="cls-1" d="M447.29,77.12c0-11.39,0-22.78,0-34.17,0-2.16-.84-5.09,2.69-5.48,2.75-.3,5.78-.79,6.77,3.09.66,2.6,1.88,1.58,3.34.54,13.65-9.73,29.06-4.77,34.33,11.17a46.36,46.36,0,0,1,1,26.73c-4,15.32-19.28,22-33,14.26-3.78-2.14-3.71-.4-3.68,2.44.06,5.46-.18,10.93.07,16.38.2,4.37-2,5.19-5.74,5.14-3.57,0-6.32-.47-5.77-5a3.53,3.53,0,0,0,0-.46Zm11.46-10.57c0,2.49-.08,5,0,7.48.11,3-.56,6.16,1.85,8.87,5.71,6.42,16.85,5.69,21.46-1.55,5-7.9,4.34-23.71-1.35-31.15-3.05-4-9.49-5.65-15-3.82-4.55,1.51-7,5.26-7,10.82C458.73,60.31,458.75,63.43,458.75,66.55Z"/><path class="cls-1" d="M162,55.11c0,7.55-.36,13.46,1.75,19.21,3.82,10.38,12.47,15.08,23.08,12.2,6.41-1.73,9.81-6.25,11.19-12.55.89-4.06,6.79-6.38,10.09-4,1.42,1,1.07,2.42.94,3.82-1.2,12.78-12.17,22.11-26.72,22.7C165.46,97.13,153,86.1,150.9,67.81a89.49,89.49,0,0,1,.52-26.59,30.63,30.63,0,0,1,48.85-18.86A21.46,21.46,0,0,1,209,37.8c.27,2.36,1,5.19-2.68,5.12-3-.06-7,2-8.23-3.39-2.33-10-8.23-14.42-18-14.1-8.2.26-14.7,6.24-17.08,15.48C161.65,46.14,162.09,51.45,162,55.11Z"/><path class="cls-1" d="M684.55,68.77c.06,7.33-.27,14.66.81,22,.27,1.77,1.42,4.66-1.92,4.61s-8,2.27-9.13-2.77c-1.06-4.67-2.17-3.52-4.76-1.28-10.94,9.45-27.83,5.5-31.35-7.23-2.46-8.87,1.43-16.9,10.08-20.64,5.57-2.4,11.47-2.62,17.44-2.7,2.51,0,5.92,1.54,7.26-2.27s-.58-9.15-3.79-11.3a12.35,12.35,0,0,0-17.35,4.13c-1.53,2.74-7.78,4.12-10.21,2.22-1.75-1.37-1.12-3.14-.52-4.71,2.74-7.14,8.54-10.61,15.56-12a30.75,30.75,0,0,1,14.84.65c8,2.35,12.84,8.58,13,16.86C684.63,59.09,684.55,63.93,684.55,68.77Zm-21.12.44c-3.54-.14-7.88-.08-11.43,3.17a8.46,8.46,0,0,0-2.77,8.86c.9,3.45,3.65,5.11,6.92,5.37,6.25.5,11.73-1.4,15.68-6.5,2.09-2.7,1.85-6,.93-9s-3.94-1.66-6.13-1.92C665.87,69.14,665.08,69.21,663.43,69.21Z"/><path class="cls-1" d="M527.9,36.32c11.89,0,20.53,6.26,24.26,17.54a39,39,0,0,1,.32,23.93c-3.6,12-12.84,18.85-25,18.67-11.86-.18-20.73-7.18-24.2-19.06A39.52,39.52,0,0,1,504,53C507.64,42.33,516.4,36.33,527.9,36.32ZM513.12,66.56c.18,4.62.87,9.52,3.31,14s6.41,6.49,11.52,6.51,9.27-1.87,11.5-6.5c4.51-9.36,4.62-18.92,0-28.31-2.33-4.8-6.6-7-11.77-7s-8.84,2.56-11.32,7S513.21,61.28,513.12,66.56Z"/><path class="cls-1" d="M413.64,36.32c11.32,0,19.4,5.33,23.52,15.84a37.11,37.11,0,0,1-.77,30c-4.62,10.07-13.65,15.09-24.62,14.27-10.66-.8-18.71-7.1-22.2-17.28a40,40,0,0,1-.74-23.49C392,43.55,401.32,36.33,413.64,36.32Zm15,30.16c-.7-4.45-.8-9-2.79-13.17-2.45-5.16-6.53-8-12.12-8.05s-9.92,2.86-12.18,7.93a31.83,31.83,0,0,0-.33,25.42c2.21,5.61,6.33,8.55,12.61,8.5s10.12-3.3,12.5-8.75C427.94,74.57,427.9,70.47,428.6,66.48Z"/><path class="cls-1" d="M705.81,44.45c4.9-6.1,10.62-8.49,17.7-8.17,10.46.46,17.65,6.94,18,17.67.41,12.46.06,25,.18,37.43,0,3.88-2.27,4.19-5.19,4.16s-6.17.22-6.16-4.27c0-9.67,0-19.34,0-29,0-1.41,0-2.81,0-4.21-.08-4.48-.31-9.2-5.15-11.13a15.93,15.93,0,0,0-15.22,1.35c-2.84,1.86-4,4.44-4,7.92.15,11.23-.09,22.46.13,33.69.08,4.24-1.34,5.75-5.64,5.77s-6.06-1.33-6-5.9c.22-15.13,0-30.26.14-45.39,0-2.74-1.55-6.64,3.63-7C703.75,36.9,704.45,37.37,705.81,44.45Z"/><path class="cls-1" d="M38.17,74.7c0-4.37-.11-8.74,0-13.1.34-12.07,9.55-21.41,21.74-22.16C70.76,38.77,81,47.33,83,58.71a22.22,22.22,0,0,1-17,25c-4.51,1-5.55,3-5.12,7a33.9,33.9,0,0,1,0,5.61c-.09,1.45.62,3.41-1.4,4a4.52,4.52,0,0,1-4.28-1.43c-5.44-5-4.23-11.42-3.29-17.51.78-5.06,5-6.16,9.5-6.64,7.21-.78,12.41-6.47,12.16-13C73.3,54.59,68,49.59,60.77,49.57c-7.52,0-12.54,4.63-12.85,12.52s-.13,15.6-.11,23.4c0,3-.77,5.58-3.58,7.1-3.29,1.78-5.9.38-6-3.38C38.06,84.38,38.17,79.54,38.17,74.7Z"/><path class="cls-1" d="M22.08,62c.31-15.72,7.29-27.65,21.3-34.65s28.05-5.63,41,3.63c.76.55,1.47,1.16,2.17,1.78,2.83,2.48,4.64,5.27,1.88,8.86-2.06,2.67-5.34,2.3-9-.8C69.71,32.49,56.58,31.36,46.05,38,35.21,44.75,30.16,57.1,33.81,69.54c1.72,5.86,1.65,11.66,1.65,17.56,0,.88.23,2-.85,2.44s-1.68-.58-2.3-1.22A35.58,35.58,0,0,1,22.08,62Z"/><path class="cls-1" d="M611.29,66.74c0-6-.09-11,0-16,.08-3.2-.81-5.15-4.44-4.89-2.9.2-4.78-.77-4.83-4.14,0-3.59,1.85-4.68,5-4.43,3.36.26,4.44-1.51,4.22-4.56-.06-.93,0-1.87,0-2.8,0-6.11,3.55-8.49,9.29-6.38,1.64.6,2,1.8,2,3.28a30.35,30.35,0,0,1,0,4.67c-.54,4.49,1.31,6.31,5.81,5.83,2.78-.29,5.33-.07,5.41,3.9.06,3.48-1.39,4.63-4.73,4.69-6.43.11-6.44.25-6.45,6.5,0,8.89-.06,17.77,0,26.66.06,6,1.35,7.42,7.4,7.56,2.81.07,2.83,1.82,3.32,3.58.59,2.17.38,3.88-2,5a13.87,13.87,0,0,1-19.27-9C610.45,79.48,611.7,72.57,611.29,66.74Z"/><path class="cls-1" d="M362.07,66.16c0-5.15-.11-10.3,0-15.44.1-3.24-.83-5.13-4.44-4.83-3.15.26-5-.76-4.94-4.42.06-3.43,1.8-4.41,4.73-4.13,3.88.37,5-1.64,4.63-5.07a26.15,26.15,0,0,1,0-2.8c0-5.85.5-6.12,6.48-6.17,3.57,0,5.29,1.23,5,4.91-.1,1.24.11,2.51,0,3.74-.45,4,1.19,5.84,5.32,5.39,3.31-.36,5.32.62,5.2,4.58-.12,3.59-2.16,4.21-4.91,3.94-4.29-.41-5.77,1.34-5.66,5.63.24,9.51,0,19,.11,28.54,0,5.2,1.54,6.82,6.68,6.64,2.93-.1,3.34,1.41,3.75,3.58.45,2.39.22,4.15-2.41,5.26-9.07,3.8-18.79-2.29-19.38-12.51-.32-5.6-.06-11.23-.06-16.84Z"/><path class="cls-1" d="M573.92,53.82c0,12.17-.17,24.34.08,36.5.1,4.77-2.3,5.24-6.1,5.29-4,.06-5.53-1.22-5.5-5.38q.21-36.51,0-73c0-4.27,1.72-5.28,5.58-5.27s6.11.7,6,5.37C573.76,29.48,573.92,41.65,573.92,53.82Z"/><path class="cls-1" d="M596.53,66.72c0,8-.19,15.92.07,23.86.15,4.56-2.28,5-5.85,5-3.75.06-5.78-.81-5.73-5.17q.26-24.09,0-48.19c0-4.52,2.3-5,5.89-5,3.74,0,5.84.75,5.7,5.15C596.35,50.5,596.53,58.61,596.53,66.72Z"/><path class="cls-1" d="M60.62,4.45c.08,2.21-.44,4-3.1,4.32A55.41,55.41,0,0,0,27.35,21.41C24.42,23.86,23,20.46,21.3,19s-.86-3,.6-4.26A61.81,61.81,0,0,1,56.67,0C59.93-.3,60.66,1.74,60.62,4.45Z"/><path class="cls-1" d="M67.81.08A61.75,61.75,0,0,1,101.43,14c1.66,1.35,3.24,2.85,1,4.94-1.77,1.65-3.06,4.71-6.42,1.95A51.7,51.7,0,0,0,67.56,9c-3.92-.38-4.23-2.88-4-6C63.78.2,65.55-.18,67.81.08Z"/><path class="cls-1" d="M124,56.69c.16,1.06.44,3.2-2.64,3.32-2.78.12-5.87.66-6.26-3.55a50.67,50.67,0,0,0-12.2-28.74c-2.73-3.21.55-4.27,1.92-6,1.79-2.27,3.38-1.4,4.91.45A62.4,62.4,0,0,1,124,56.69Z"/><path class="cls-1" d="M124,67.36a61.13,61.13,0,0,1-14.06,34.24c-1.42,1.72-2.82,3.15-4.94,1-1.69-1.7-4.22-3.13-1.81-6.16,6.86-8.62,11.23-18.27,12.12-29.39.3-3.82,3.31-3.48,6-3.4S124.32,65.38,124,67.36Z"/><path class="cls-1" d="M68,123.89c-2.54.38-4.39,0-4.47-3.14-.07-2.88.16-5.33,3.91-5.55,11-.65,20.45-5.07,28.78-11.94,3.42-2.82,4.56.15,6.39,1.72,2.32,2,1,3.3-.76,4.79A62.49,62.49,0,0,1,68,123.89Z"/><path class="cls-1" d="M55.52,123.81A62.84,62.84,0,0,1,22,109.61c-1.74-1.4-2.56-2.91-.48-4.56,1.7-1.35,2.76-4.82,6-2.1a51.16,51.16,0,0,0,29.27,12.31c3.68.31,4,2.78,3.85,5.67C60.45,124.65,57.88,124,55.52,123.81Z"/><path class="cls-1" d="M0,67.26c-.2-2,.46-3.47,2.66-3.52s5-.92,5.76,2.34c.72,3,1,6.13,1.74,9.14A49.62,49.62,0,0,0,20.58,95.84c2.71,3.18.33,4.61-1.47,6.48-2.32,2.42-3.72.8-5.22-1A62.79,62.79,0,0,1,0,67.26Z"/><path class="cls-1" d="M.26,55.46A60.76,60.76,0,0,1,13.86,22.9c1.27-1.55,2.6-4,5.19-1.49,2,2,4.35,3.66,1.63,6.94A49.9,49.9,0,0,0,9.05,55.88c-.36,3.74-2.61,4.43-5.83,4.21C.47,59.9-.27,58.5.26,55.46Z"/><path class="cls-1" d="M68,100.27c-2.25.12-3.21-.12-3.65-1.73-1.3-4.83.23-8,4.91-9.55a31.63,31.63,0,0,0,11.2-6.52c2.55-2.29,5.27-2.9,7.8-.19s1.64,5.36-.72,7.79A35,35,0,0,1,68,100.27Z"/><path class="cls-1" d="M67,62a6.35,6.35,0,1,1-12.69-.22A6.35,6.35,0,0,1,67,62Z"/><path class="cls-1" d="M596.43,18.2c1,5.26-2.37,5.19-6.13,5.39-4.73.26-5.15-2.24-5.31-6-.21-4.74,2-5.57,6.15-5.66C596,11.82,597.11,14.07,596.43,18.2Z"/></g></g></svg>