<svg width="58" height="58" viewBox="0 0 58 58" fill="none" xmlns="http://www.w3.org/2000/svg">
    <path d="M39 22.866V11.219C39 6.149 34.5 2 29 2C23.5 2 19 6.149 19 11.219V22.866" stroke="#D8A852" stroke-width="4" stroke-miterlimit="10" stroke-linecap="round" stroke-linejoin="round"/>
    <path d="M29 58C39.4934 58 48 49.4934 48 39C48 28.5066 39.4934 20 29 20C18.5066 20 10 28.5066 10 39C10 49.4934 18.5066 58 29 58Z" fill="#E7ECED"/>
    <path d="M29 44C27.35 44 26 42.65 26 41V35C26 33.35 27.35 32 29 32C30.65 32 32 33.35 32 35V41C32 42.65 30.65 44 29 44Z" fill="#3E5959"/>
</svg>
