<svg width="40" height="40" viewBox="0 0 40 40" fill="none" xmlns="http://www.w3.org/2000/svg">
<circle cx="20" cy="20" r="20" fill="#3463F8"/>
<path d="M16.7333 27.4332C16.5556 27.4332 16.3889 27.4052 16.2333 27.3492C16.0778 27.2941 15.9333 27.1999 15.8 27.0665L10.0667 21.3332C9.82222 21.0888 9.70533 20.7719 9.716 20.3825C9.72756 19.9941 9.85556 19.6776 10.1 19.4332C10.3444 19.1888 10.6556 19.0665 11.0333 19.0665C11.4111 19.0665 11.7222 19.1888 11.9667 19.4332L16.7333 24.1999L28.0333 12.8999C28.2778 12.6554 28.5947 12.5332 28.984 12.5332C29.3724 12.5332 29.6889 12.6554 29.9333 12.8999C30.1778 13.1443 30.3 13.4608 30.3 13.8492C30.3 14.2385 30.1778 14.5554 29.9333 14.7999L17.6667 27.0665C17.5333 27.1999 17.3889 27.2941 17.2333 27.3492C17.0778 27.4052 16.9111 27.4332 16.7333 27.4332Z" fill="white"/>
</svg>
