<svg xmlns="http://www.w3.org/2000/svg" viewBox="0 0 964 326"><defs><style>.a{fill:#fff;}</style></defs><title>LOGO Blanc</title><rect class="a" x="646" y="60" width="67" height="221.92"/><path class="a" d="M497,320c45-15,76-42,96-82,9-17,15-38,23-61-55,52-55,52-136,99Z"/><path class="a" d="M551,191l-28-85H465c7,17,50,128,50,134,59-21,101-71,102-72,7-20,14-41,20-62H579C570,141,562,167,551,191Z"/><path class="a" d="M392,130V107H327V282h64V200c0-34,25-31,66-31V107H432C414,107,401,111,392,130Z"/><polygon class="a" points="320 112 320 107 251 107 203 161 203 59 139 59 139 115 139 117 118 117 102 168 139 168 139 187 98 187 81 238 139 238 139 282 203 282 203 246 218 228 253 282 322 282 322 274 259 182 320 112"/><rect class="a" x="723" y="12" width="67" height="269.19"/><path class="a" d="M806,270h-4a6,6,0,0,0-2,9l4,2,4-2a6,6,0,0,0,1-4,6,6,0,0,0-1-3Z"/><rect class="a" x="818" y="239" width="10" height="42.07"/><path class="a" d="M874,243a23,23,0,0,0-16-6,22,22,0,0,0-22,22,21,21,0,0,0,7,16,23,23,0,0,0,16,6,22,22,0,0,0,22-22A21,21,0,0,0,874,243Zm-7,25a11,11,0,0,1-9,4,13,13,0,0,1-9-4,11,11,0,0,1-4-9,13,13,0,0,1,4-9,11,11,0,0,1,9-4,13,13,0,0,1,9,4,12,12,0,0,1,4,9A13,13,0,0,1,868,268Z"/></svg>